<svg xmlns="http://www.w3.org/2000/svg" viewBox="0 0 180.685 70.85">
  <defs>
    <style>
      .cls-1, .cls-3 {
        fill: #ffd628;
      }

      .cls-2 {
        fill: #fff;
        font-size: 28px;
        font-family: Helvetica-Light, Helvetica;
        letter-spacing: 0.02em;
        font-weight: 300;
      }

      .cls-3 {
        font-family: Helvetica;
        font-weight: 400;
      }
    </style>
  </defs>
  <g id="Logo_orange" data-name="Logo orange" transform="translate(-291 -15.347)">
    <path id="Union_1" data-name="Union 1" class="cls-1" d="M380.468-769.15c-.017-.014-1.687-1.4-4.144-3.611-2.279-2.048-5.735-5.251-9.257-8.878a102.694,102.694,0,0,1-9.609-11.209,42.245,42.245,0,0,1-3.448-5.562,17.248,17.248,0,0,1-1.75-5.044,22.936,22.936,0,0,1-.228-4.606,22.641,22.641,0,0,1,.673-4.423,22.77,22.77,0,0,1,1.5-4.137,22.939,22.939,0,0,1,2.245-3.747,22.924,22.924,0,0,1,2.916-3.252,22.748,22.748,0,0,1,3.51-2.653,22.634,22.634,0,0,1,4.027-1.95,22.928,22.928,0,0,1,4.468-1.143,23.037,23.037,0,0,1,3.429-.259,22.562,22.562,0,0,1,7.943,1.44,22.92,22.92,0,0,1,3.586,1.714,22.968,22.968,0,0,1,3.224,2.3,22.906,22.906,0,0,1,2.785,2.829,22.742,22.742,0,0,1,2.268,3.3,22.682,22.682,0,0,1,2.675,7.785,17.245,17.245,0,0,1-.182,5.331,42.272,42.272,0,0,1-1.651,6.33,102.82,102.82,0,0,1-5.868,13.548c-1.265,2.488-3.372,6.454-6.221,11.22-1.694,2.835-2.88,4.659-2.891,4.677Zm.34-49.744-15.31,2.313a8.37,8.37,0,0,0-3.143,1.144,8.4,8.4,0,0,0-2.377,2.185,8.394,8.394,0,0,0-1.385,2.917,8.367,8.367,0,0,0-.165,3.34,8.39,8.39,0,0,0,.991,2.88,8.393,8.393,0,0,0,1.871,2.268,8.43,8.43,0,0,0,5.461,2.018,8.556,8.556,0,0,0,1.269-.1l15.31-2.313a8.37,8.37,0,0,0,3.143-1.144,8.393,8.393,0,0,0,2.377-2.185,8.39,8.39,0,0,0,1.385-2.916,8.372,8.372,0,0,0,.165-3.34,8.4,8.4,0,0,0-.992-2.881,8.4,8.4,0,0,0-1.871-2.268,8.428,8.428,0,0,0-5.461-2.017A8.524,8.524,0,0,0,380.808-818.895ZM364.994-805.39a3.657,3.657,0,0,1-1.243-2.235,3.636,3.636,0,0,1,.671-2.719,3.635,3.635,0,0,1,2.4-1.448,3.645,3.645,0,0,1,.55-.042,3.67,3.67,0,0,1,.809.09,1.538,1.538,0,0,0-.466,1.338,1.534,1.534,0,0,0,.519.945,1.534,1.534,0,0,0,1,.372,1.56,1.56,0,0,0,.219-.015,1.541,1.541,0,0,0,1.143-.805,3.645,3.645,0,0,1,.4,1.19,3.635,3.635,0,0,1-.675,2.717,3.634,3.634,0,0,1-2.4,1.447,3.734,3.734,0,0,1-.552.042A3.66,3.66,0,0,1,364.994-805.39Zm14.049-2.117a3.657,3.657,0,0,1-1.243-2.237,3.635,3.635,0,0,1,.671-2.718,3.635,3.635,0,0,1,2.4-1.448,3.675,3.675,0,0,1,.55-.042,3.658,3.658,0,0,1,.8.089,1.539,1.539,0,0,0-.46,1.332,1.532,1.532,0,0,0,.519.944,1.534,1.534,0,0,0,1,.372,1.525,1.525,0,0,0,.219-.016,1.541,1.541,0,0,0,1.141-.8,3.65,3.65,0,0,1,.4,1.193,3.636,3.636,0,0,1-.673,2.718,3.636,3.636,0,0,1-2.4,1.446,3.67,3.67,0,0,1-.552.042,3.66,3.66,0,0,1-2.371-.875Zm13.56-15.844s13.9-5.4,20.458-.425l-.333,7.606S405.671-824.384,392.6-823.351ZM406.337-840l5.535,5.639s-11.213-.451-19.661,10.187C392.21-824.174,397.928-838.55,406.337-840Z" transform="translate(-61.003 855.347)"/>
    <text id="routeNinja" class="cls-2" transform="translate(338.685 77)"><tspan x="0" y="0">route</tspan><tspan class="cls-3" y="0">Ninja</tspan></text>
  </g>
</svg>
